<?xml version="1.0" standalone="no"?>
<!DOCTYPE svg PUBLIC "-//W3C//DTD SVG 20010904//EN"
 "http://www.w3.org/TR/2001/REC-SVG-20010904/DTD/svg10.dtd">
<svg version="1.0" xmlns="http://www.w3.org/2000/svg"
 width="200.000000pt" height="200.000000pt" viewBox="0 0 200.000000 200.000000"
 preserveAspectRatio="xMidYMid meet">

<g transform="translate(0.000000,200.000000) scale(0.100000,-0.100000)"
fill="#000000" stroke="none">
<path d="M985 1966 c-14 -10 -25 -11 -38 -5 -54 29 -258 -200 -316 -354 -48
-130 -53 -304 -12 -420 19 -55 19 -61 5 -90 -21 -39 -54 -136 -54 -155 0 -12
4 -11 21 4 11 10 16 20 10 22 -7 2 -6 14 4 32 8 16 15 37 15 48 0 10 6 27 14
37 12 17 15 14 35 -39 26 -70 26 -73 1 -86 -21 -11 -22 -10 -32 27 -2 7 -8 9
-16 4 -17 -10 3 -65 21 -58 46 19 50 20 43 9 -3 -6 0 -15 9 -19 10 -6 19 -37
26 -93 20 -147 -22 -340 -100 -466 l-38 -60 69 -34 c103 -49 184 -105 262
-179 64 -60 67 -62 36 -21 l-34 45 49 -45 48 -45 -28 37 c-35 48 -27 48 21 1
l37 -38 -24 35 c-42 62 -124 137 -220 200 -52 34 -94 65 -93 68 0 4 17 41 37
82 21 42 44 109 53 150 18 85 23 260 10 335 -8 44 -7 48 6 37 13 -10 18 -9 28
3 9 11 16 12 25 5 9 -8 21 -3 44 16 l31 26 0 -34 c1 -31 1 -32 15 -14 8 11 15
14 15 7 0 -7 5 -9 11 -6 5 4 8 12 6 18 -2 7 0 22 4 35 5 13 5 22 -1 22 -6 0
-10 -4 -10 -8 0 -5 -6 -17 -14 -27 -13 -18 -14 -18 -9 8 7 35 -5 34 -42 -5
-25 -26 -31 -29 -33 -14 -4 17 -5 17 -23 0 -10 -9 -22 -14 -26 -10 -4 4 3 16
17 26 14 10 22 22 18 26 -4 4 -20 -7 -35 -25 -15 -17 -31 -31 -35 -31 -12 0
-10 58 2 65 6 3 10 16 10 28 0 12 7 35 15 51 19 36 19 42 1 26 -8 -6 -22 -34
-32 -62 l-16 -50 -29 88 c-71 217 -82 345 -40 466 49 144 174 322 276 396 17
12 27 22 24 22 -3 0 -14 -6 -24 -14z m-41 -14 c2 -4 -4 -8 -14 -8 -10 0 -16 4
-14 8 3 4 9 8 14 8 5 0 11 -4 14 -8z"/>
<path d="M1149 1068 c-13 -24 -23 -53 -24 -65 -1 -29 -38 -60 -43 -37 -3 13
-6 13 -23 -2 -10 -9 -22 -14 -27 -10 -4 5 3 15 16 23 25 17 30 35 7 26 -20 -7
-48 -60 -39 -74 4 -7 13 -4 24 6 13 11 20 13 25 5 5 -8 13 -7 29 3 20 13 24
13 33 -1 10 -15 14 -14 40 13 15 16 19 22 7 12 -27 -22 -34 -21 -34 2 0 33 12
52 39 64 25 10 26 11 4 14 -27 5 -28 7 -7 38 10 15 12 25 5 25 -6 0 -20 -19
-32 -42z"/>
<path d="M1473 1098 c-18 -23 -34 -59 -39 -86 -6 -31 -41 -72 -61 -72 -19 0
-16 13 7 28 19 11 29 52 13 52 -4 0 -24 -16 -44 -36 -38 -37 -59 -38 -59 -2 0
16 -3 18 -14 9 -14 -12 -11 -47 6 -57 5 -3 20 2 33 10 22 15 25 15 25 1 0 -25
27 -28 58 -7 24 18 29 18 38 6 8 -13 12 -13 32 1 12 9 22 21 22 27 0 6 -9 3
-19 -6 -25 -22 -34 -7 -20 33 7 20 18 31 30 31 10 0 19 5 19 10 0 6 -10 10
-21 10 -21 0 -21 1 -4 26 17 27 16 44 -2 22z m-93 -113 c-7 -9 -15 -13 -17
-11 -7 7 7 26 19 26 6 0 6 -6 -2 -15z"/>
<path d="M515 992 c-11 -17 -13 -22 -4 -15 19 15 29 7 28 -21 0 -21 -1 -21 -9
-1 -7 18 -9 18 -15 3 -4 -9 -4 -22 0 -28 22 -35 54 24 34 63 l-14 25 -20 -26z"/>
<path d="M1006 995 c-9 -26 -7 -32 5 -12 6 10 9 21 6 23 -2 3 -7 -2 -11 -11z"/>
<path d="M1236 998 c-3 -7 -7 -26 -11 -43 -6 -28 -5 -29 11 -13 19 19 28 68
13 68 -5 0 -11 -6 -13 -12z"/>
<path d="M1191 944 c0 -11 3 -14 6 -6 3 7 2 16 -1 19 -3 4 -6 -2 -5 -13z"/>
</g>
</svg>
